<mxfile host="app.diagrams.net" agent="Mozilla/5.0 (Windows NT 10.0; Win64; x64) AppleWebKit/537.36 (KHTML, like Gecko) Chrome/128.0.0.0 Safari/537.36" version="24.7.7">
  <diagram id="R2lEEEUBdFMjLlhIrx00" name="Page-1">
    <mxGraphModel dx="1073" dy="1723" grid="1" gridSize="10" guides="1" tooltips="1" connect="1" arrows="1" fold="1" page="1" pageScale="1" pageWidth="850" pageHeight="1100" math="0" shadow="0" extFonts="Permanent Marker^https://fonts.googleapis.com/css?family=Permanent+Marker">
      <root>
        <mxCell id="0" />
        <mxCell id="1" parent="0" />
        <mxCell id="C-vyLk0tnHw3VtMMgP7b-12" value="" style="edgeStyle=entityRelationEdgeStyle;endArrow=ERzeroToMany;startArrow=ERone;endFill=1;startFill=0;" parent="1" target="C-vyLk0tnHw3VtMMgP7b-17" edge="1">
          <mxGeometry width="100" height="100" relative="1" as="geometry">
            <mxPoint x="700" y="165" as="sourcePoint" />
            <mxPoint x="460" y="205" as="targetPoint" />
          </mxGeometry>
        </mxCell>
        <mxCell id="Qojg-Y210ekyZZENVFTY-13" style="edgeStyle=none;rounded=0;orthogonalLoop=1;jettySize=auto;html=1;entryX=0.75;entryY=0;entryDx=0;entryDy=0;exitX=0.25;exitY=1;exitDx=0;exitDy=0;" edge="1" parent="1" source="Qojg-Y210ekyZZENVFTY-5" target="Qojg-Y210ekyZZENVFTY-8">
          <mxGeometry relative="1" as="geometry">
            <Array as="points">
              <mxPoint x="1000" y="-330" />
              <mxPoint x="920" y="-330" />
            </Array>
          </mxGeometry>
        </mxCell>
        <mxCell id="Qojg-Y210ekyZZENVFTY-14" style="edgeStyle=none;rounded=0;orthogonalLoop=1;jettySize=auto;html=1;entryX=0.5;entryY=0;entryDx=0;entryDy=0;exitX=0.75;exitY=1;exitDx=0;exitDy=0;" edge="1" parent="1" source="Qojg-Y210ekyZZENVFTY-5" target="Qojg-Y210ekyZZENVFTY-9">
          <mxGeometry relative="1" as="geometry">
            <mxPoint x="1060" y="-410" as="sourcePoint" />
            <Array as="points">
              <mxPoint x="1100" y="-330" />
              <mxPoint x="1180" y="-330" />
            </Array>
          </mxGeometry>
        </mxCell>
        <mxCell id="Qojg-Y210ekyZZENVFTY-5" value="Booking" style="whiteSpace=wrap;html=1;" vertex="1" parent="1">
          <mxGeometry x="990" y="-480" width="120" height="60" as="geometry" />
        </mxCell>
        <mxCell id="Qojg-Y210ekyZZENVFTY-12" style="edgeStyle=none;rounded=0;orthogonalLoop=1;jettySize=auto;html=1;exitX=0.5;exitY=1;exitDx=0;exitDy=0;" edge="1" parent="1" source="Qojg-Y210ekyZZENVFTY-19" target="Qojg-Y210ekyZZENVFTY-5">
          <mxGeometry relative="1" as="geometry" />
        </mxCell>
        <mxCell id="Qojg-Y210ekyZZENVFTY-6" value="Passenger" style="whiteSpace=wrap;html=1;" vertex="1" parent="1">
          <mxGeometry x="990" y="-740" width="120" height="60" as="geometry" />
        </mxCell>
        <mxCell id="Qojg-Y210ekyZZENVFTY-27" style="edgeStyle=none;rounded=0;orthogonalLoop=1;jettySize=auto;html=1;exitX=0.75;exitY=1;exitDx=0;exitDy=0;entryX=0.25;entryY=0;entryDx=0;entryDy=0;" edge="1" parent="1" source="Qojg-Y210ekyZZENVFTY-7" target="Qojg-Y210ekyZZENVFTY-8">
          <mxGeometry relative="1" as="geometry">
            <mxPoint x="830" y="-240" as="targetPoint" />
            <Array as="points">
              <mxPoint x="710" y="-330" />
              <mxPoint x="790" y="-330" />
            </Array>
          </mxGeometry>
        </mxCell>
        <mxCell id="Qojg-Y210ekyZZENVFTY-7" value="Flight" style="whiteSpace=wrap;html=1;" vertex="1" parent="1">
          <mxGeometry x="560" y="-480" width="120" height="60" as="geometry" />
        </mxCell>
        <mxCell id="Qojg-Y210ekyZZENVFTY-8" value="Ticket" style="whiteSpace=wrap;html=1;" vertex="1" parent="1">
          <mxGeometry x="800" y="-230" width="120" height="60" as="geometry" />
        </mxCell>
        <mxCell id="Qojg-Y210ekyZZENVFTY-9" value="Payment" style="whiteSpace=wrap;html=1;" vertex="1" parent="1">
          <mxGeometry x="1160" y="-230" width="120" height="60" as="geometry" />
        </mxCell>
        <mxCell id="Qojg-Y210ekyZZENVFTY-17" style="edgeStyle=none;rounded=0;orthogonalLoop=1;jettySize=auto;html=1;exitX=0.5;exitY=1;exitDx=0;exitDy=0;" edge="1" parent="1" source="Qojg-Y210ekyZZENVFTY-10" target="Qojg-Y210ekyZZENVFTY-7">
          <mxGeometry relative="1" as="geometry" />
        </mxCell>
        <mxCell id="Qojg-Y210ekyZZENVFTY-10" value="Airport" style="whiteSpace=wrap;html=1;" vertex="1" parent="1">
          <mxGeometry x="560" y="-740" width="120" height="60" as="geometry" />
        </mxCell>
        <mxCell id="Qojg-Y210ekyZZENVFTY-11" value="Airline" style="whiteSpace=wrap;html=1;" vertex="1" parent="1">
          <mxGeometry x="340" y="-230" width="120" height="60" as="geometry" />
        </mxCell>
        <mxCell id="Qojg-Y210ekyZZENVFTY-20" value="" style="edgeStyle=none;rounded=0;orthogonalLoop=1;jettySize=auto;html=1;exitX=0.5;exitY=1;exitDx=0;exitDy=0;" edge="1" parent="1" source="Qojg-Y210ekyZZENVFTY-6" target="Qojg-Y210ekyZZENVFTY-19">
          <mxGeometry relative="1" as="geometry">
            <mxPoint x="1050" y="-680" as="sourcePoint" />
            <mxPoint x="1050" y="-480" as="targetPoint" />
          </mxGeometry>
        </mxCell>
        <mxCell id="Qojg-Y210ekyZZENVFTY-19" value="Books" style="rhombus;whiteSpace=wrap;html=1;" vertex="1" parent="1">
          <mxGeometry x="1010" y="-620" width="80" height="80" as="geometry" />
        </mxCell>
        <mxCell id="Qojg-Y210ekyZZENVFTY-21" value="Includes" style="rhombus;whiteSpace=wrap;html=1;" vertex="1" parent="1">
          <mxGeometry x="920" y="-370" width="80" height="80" as="geometry" />
        </mxCell>
        <mxCell id="Qojg-Y210ekyZZENVFTY-22" value="Pays" style="rhombus;whiteSpace=wrap;html=1;" vertex="1" parent="1">
          <mxGeometry x="1100" y="-370" width="80" height="80" as="geometry" />
        </mxCell>
        <mxCell id="Qojg-Y210ekyZZENVFTY-25" value="Has" style="rhombus;whiteSpace=wrap;html=1;" vertex="1" parent="1">
          <mxGeometry x="710" y="-370" width="80" height="80" as="geometry" />
        </mxCell>
        <mxCell id="Qojg-Y210ekyZZENVFTY-29" value="Hosts" style="rhombus;whiteSpace=wrap;html=1;" vertex="1" parent="1">
          <mxGeometry x="580" y="-620" width="80" height="80" as="geometry" />
        </mxCell>
        <mxCell id="Qojg-Y210ekyZZENVFTY-33" value="" style="edgeStyle=none;rounded=0;orthogonalLoop=1;jettySize=auto;html=1;exitX=0.75;exitY=0;exitDx=0;exitDy=0;entryX=0.25;entryY=1;entryDx=0;entryDy=0;" edge="1" parent="1" source="Qojg-Y210ekyZZENVFTY-11" target="Qojg-Y210ekyZZENVFTY-7">
          <mxGeometry relative="1" as="geometry">
            <mxPoint x="430" y="-230" as="sourcePoint" />
            <mxPoint x="600" y="-420" as="targetPoint" />
            <Array as="points">
              <mxPoint x="470" y="-330" />
              <mxPoint x="550" y="-330" />
            </Array>
          </mxGeometry>
        </mxCell>
        <mxCell id="Qojg-Y210ekyZZENVFTY-28" value="Operates" style="rhombus;whiteSpace=wrap;html=1;" vertex="1" parent="1">
          <mxGeometry x="470" y="-370" width="80" height="80" as="geometry" />
        </mxCell>
        <mxCell id="Qojg-Y210ekyZZENVFTY-34" value="&lt;u&gt;PassengerID&lt;/u&gt;" style="ellipse;whiteSpace=wrap;html=1;" vertex="1" parent="1">
          <mxGeometry x="1140" y="-730" width="80" height="40" as="geometry" />
        </mxCell>
        <mxCell id="Qojg-Y210ekyZZENVFTY-40" value="E-mail" style="ellipse;whiteSpace=wrap;html=1;" vertex="1" parent="1">
          <mxGeometry x="1190" y="-680" width="80" height="40" as="geometry" />
        </mxCell>
        <mxCell id="Qojg-Y210ekyZZENVFTY-41" value="Phone" style="ellipse;whiteSpace=wrap;html=1;" vertex="1" parent="1">
          <mxGeometry x="1260" y="-760" width="80" height="40" as="geometry" />
        </mxCell>
        <mxCell id="Qojg-Y210ekyZZENVFTY-42" value="Address" style="ellipse;whiteSpace=wrap;html=1;" vertex="1" parent="1">
          <mxGeometry x="1280" y="-660" width="80" height="40" as="geometry" />
        </mxCell>
        <mxCell id="Qojg-Y210ekyZZENVFTY-43" value="Name" style="ellipse;whiteSpace=wrap;html=1;" vertex="1" parent="1">
          <mxGeometry x="1280" y="-710" width="80" height="40" as="geometry" />
        </mxCell>
      </root>
    </mxGraphModel>
  </diagram>
</mxfile>
